<mxfile host="65bd71144e">
    <diagram id="uaAGMhYaLc_CeuGyEuUz" name="Page-1">
        <mxGraphModel dx="4988" dy="1022" grid="1" gridSize="10" guides="1" tooltips="1" connect="1" arrows="1" fold="1" page="1" pageScale="1" pageWidth="827" pageHeight="1169" math="0" shadow="0">
            <root>
                <mxCell id="0"/>
                <mxCell id="1" parent="0"/>
                <mxCell id="71" style="edgeStyle=none;html=1;exitX=0.5;exitY=1;exitDx=0;exitDy=0;entryX=0.5;entryY=0;entryDx=0;entryDy=0;startArrow=classic;startFill=1;" edge="1" parent="1" source="62" target="10">
                    <mxGeometry relative="1" as="geometry"/>
                </mxCell>
                <mxCell id="73" style="edgeStyle=none;html=1;exitX=0.5;exitY=1;exitDx=0;exitDy=0;entryX=0.5;entryY=0;entryDx=0;entryDy=0;startArrow=classic;startFill=1;" edge="1" parent="1" source="24" target="9">
                    <mxGeometry relative="1" as="geometry"/>
                </mxCell>
                <mxCell id="74" style="edgeStyle=none;html=1;exitX=0.5;exitY=1;exitDx=0;exitDy=0;entryX=0.5;entryY=0;entryDx=0;entryDy=0;startArrow=classic;startFill=1;" edge="1" parent="1" source="8" target="52">
                    <mxGeometry relative="1" as="geometry"/>
                </mxCell>
                <mxCell id="18" value="" style="rounded=0;whiteSpace=wrap;html=1;strokeColor=#808080;fillColor=none;dashed=1;dashPattern=12 12;" vertex="1" parent="1">
                    <mxGeometry x="625" y="502.5" width="520" height="345" as="geometry"/>
                </mxCell>
                <mxCell id="11" value="" style="group" vertex="1" connectable="0" parent="1">
                    <mxGeometry x="660" y="530" width="450" height="290" as="geometry"/>
                </mxCell>
                <mxCell id="13" style="edgeStyle=none;html=1;exitX=1;exitY=0;exitDx=0;exitDy=0;entryX=0;entryY=1;entryDx=0;entryDy=0;startArrow=classic;startFill=1;" edge="1" parent="11" source="6" target="10">
                    <mxGeometry relative="1" as="geometry"/>
                </mxCell>
                <mxCell id="14" style="edgeStyle=none;html=1;exitX=0.5;exitY=1;exitDx=0;exitDy=0;entryX=0.5;entryY=0;entryDx=0;entryDy=0;startArrow=classic;startFill=1;" edge="1" parent="11" source="6" target="8">
                    <mxGeometry relative="1" as="geometry"/>
                </mxCell>
                <mxCell id="6" value="Control agent" style="rounded=0;whiteSpace=wrap;html=1;fillColor=light-dark(#df3224, #ededed);fontSize=16;" vertex="1" parent="11">
                    <mxGeometry x="165" y="115" width="120" height="60" as="geometry"/>
                </mxCell>
                <mxCell id="8" value="Mediator agent" style="rounded=0;whiteSpace=wrap;html=1;fillColor=light-dark(#ee5451, #ededed);fontSize=16;" vertex="1" parent="11">
                    <mxGeometry x="165" y="230" width="120" height="60" as="geometry"/>
                </mxCell>
                <mxCell id="12" style="edgeStyle=none;html=1;exitX=1;exitY=1;exitDx=0;exitDy=0;entryX=0;entryY=0;entryDx=0;entryDy=0;startArrow=classic;startFill=1;" edge="1" parent="11" source="9" target="6">
                    <mxGeometry relative="1" as="geometry"/>
                </mxCell>
                <mxCell id="9" value="Mediator agent" style="rounded=0;whiteSpace=wrap;html=1;fillColor=light-dark(#ee5451, #ededed);fontSize=16;" vertex="1" parent="11">
                    <mxGeometry width="120" height="60" as="geometry"/>
                </mxCell>
                <mxCell id="10" value="Mediator agent" style="rounded=0;whiteSpace=wrap;html=1;fillColor=light-dark(#ee5451, #ededed);flipV=1;fontSize=16;" vertex="1" parent="11">
                    <mxGeometry x="330" width="120" height="60" as="geometry"/>
                </mxCell>
                <mxCell id="52" value="" style="ellipse;whiteSpace=wrap;html=1;pointerEvents=0;align=center;verticalAlign=top;fontFamily=Helvetica;fontSize=12;fontColor=default;fillColor=none;gradientColor=none;strokeColor=#808080;dashed=1;dashPattern=12 12;" vertex="1" parent="1">
                    <mxGeometry x="625" y="879" width="520" height="260" as="geometry"/>
                </mxCell>
                <mxCell id="53" value="" style="group;fontSize=16;" vertex="1" connectable="0" parent="1">
                    <mxGeometry x="720" y="922.75" width="330" height="172.5" as="geometry"/>
                </mxCell>
                <mxCell id="54" value="Agent" style="rounded=0;whiteSpace=wrap;html=1;fillColor=light-dark(#91e0d9, #ededed);fontSize=16;" vertex="1" parent="53">
                    <mxGeometry width="120" height="60" as="geometry"/>
                </mxCell>
                <mxCell id="55" value="Agent" style="rounded=0;whiteSpace=wrap;html=1;fillColor=light-dark(#91e0d9, #ededed);fontSize=16;" vertex="1" parent="53">
                    <mxGeometry x="210" width="120" height="60" as="geometry"/>
                </mxCell>
                <mxCell id="56" value="Agent" style="rounded=0;whiteSpace=wrap;html=1;fillColor=light-dark(#91e0d9, #ededed);fontSize=16;" vertex="1" parent="53">
                    <mxGeometry x="105" y="112.5" width="120" height="60" as="geometry"/>
                </mxCell>
                <mxCell id="57" style="edgeStyle=none;html=1;exitX=0;exitY=0.5;exitDx=0;exitDy=0;entryX=1;entryY=0.5;entryDx=0;entryDy=0;startArrow=classic;startFill=1;" edge="1" parent="53" source="55" target="54">
                    <mxGeometry relative="1" as="geometry"/>
                </mxCell>
                <mxCell id="58" style="edgeStyle=none;html=1;exitX=0.75;exitY=1;exitDx=0;exitDy=0;entryX=0.25;entryY=0;entryDx=0;entryDy=0;startArrow=classic;startFill=1;" edge="1" parent="53" source="54" target="56">
                    <mxGeometry relative="1" as="geometry"/>
                </mxCell>
                <mxCell id="59" style="edgeStyle=none;html=1;exitX=0.25;exitY=1;exitDx=0;exitDy=0;entryX=0.75;entryY=0;entryDx=0;entryDy=0;startArrow=classic;startFill=1;" edge="1" parent="53" source="55" target="56">
                    <mxGeometry relative="1" as="geometry"/>
                </mxCell>
                <mxCell id="61" value="" style="group" vertex="1" connectable="0" parent="1">
                    <mxGeometry x="900" y="220" width="420" height="260" as="geometry"/>
                </mxCell>
                <mxCell id="62" value="" style="ellipse;whiteSpace=wrap;html=1;pointerEvents=0;align=center;verticalAlign=top;fontFamily=Helvetica;fontSize=12;fontColor=default;fillColor=none;gradientColor=none;strokeColor=#808080;dashed=1;dashPattern=12 12;" vertex="1" parent="61">
                    <mxGeometry width="420" height="260" as="geometry"/>
                </mxCell>
                <mxCell id="63" value="" style="group" vertex="1" connectable="0" parent="61">
                    <mxGeometry x="45" y="60.75" width="330" height="172.5" as="geometry"/>
                </mxCell>
                <mxCell id="64" value="Agent" style="rounded=0;whiteSpace=wrap;html=1;fillColor=light-dark(#91e0d9, #ededed);fontSize=16;" vertex="1" parent="63">
                    <mxGeometry width="120" height="60" as="geometry"/>
                </mxCell>
                <mxCell id="65" value="Agent" style="rounded=0;whiteSpace=wrap;html=1;fillColor=light-dark(#91e0d9, #ededed);fontSize=16;" vertex="1" parent="63">
                    <mxGeometry x="210" width="120" height="60" as="geometry"/>
                </mxCell>
                <mxCell id="66" value="Agent" style="rounded=0;whiteSpace=wrap;html=1;fillColor=light-dark(#91e0d9, #ededed);fontSize=16;" vertex="1" parent="63">
                    <mxGeometry x="105" y="112.5" width="120" height="60" as="geometry"/>
                </mxCell>
                <mxCell id="67" style="edgeStyle=none;html=1;exitX=0;exitY=0.5;exitDx=0;exitDy=0;entryX=1;entryY=0.5;entryDx=0;entryDy=0;startArrow=classic;startFill=1;" edge="1" parent="63" source="65" target="64">
                    <mxGeometry relative="1" as="geometry"/>
                </mxCell>
                <mxCell id="68" style="edgeStyle=none;html=1;exitX=0.75;exitY=1;exitDx=0;exitDy=0;entryX=0.25;entryY=0;entryDx=0;entryDy=0;startArrow=classic;startFill=1;" edge="1" parent="63" source="64" target="66">
                    <mxGeometry relative="1" as="geometry"/>
                </mxCell>
                <mxCell id="69" style="edgeStyle=none;html=1;exitX=0.25;exitY=1;exitDx=0;exitDy=0;entryX=0.75;entryY=0;entryDx=0;entryDy=0;startArrow=classic;startFill=1;" edge="1" parent="63" source="65" target="66">
                    <mxGeometry relative="1" as="geometry"/>
                </mxCell>
                <mxCell id="24" value="" style="ellipse;whiteSpace=wrap;html=1;pointerEvents=0;align=center;verticalAlign=top;fontFamily=Helvetica;fontSize=12;fontColor=default;fillColor=none;gradientColor=none;strokeColor=#808080;dashed=1;dashPattern=12 12;" vertex="1" parent="1">
                    <mxGeometry x="450" y="220" width="420" height="260" as="geometry"/>
                </mxCell>
                <mxCell id="25" value="" style="group" vertex="1" connectable="0" parent="1">
                    <mxGeometry x="495" y="280.75" width="330" height="172.5" as="geometry"/>
                </mxCell>
                <mxCell id="3" value="Agent" style="rounded=0;whiteSpace=wrap;html=1;fillColor=light-dark(#91e0d9, #ededed);fontSize=16;" vertex="1" parent="25">
                    <mxGeometry width="120" height="60" as="geometry"/>
                </mxCell>
                <mxCell id="4" value="Agent" style="rounded=0;whiteSpace=wrap;html=1;fillColor=light-dark(#91e0d9, #ededed);fontSize=16;" vertex="1" parent="25">
                    <mxGeometry x="210" width="120" height="60" as="geometry"/>
                </mxCell>
                <mxCell id="5" value="Agent" style="rounded=0;whiteSpace=wrap;html=1;fillColor=light-dark(#91e0d9, #ededed);fontSize=16;" vertex="1" parent="25">
                    <mxGeometry x="105" y="112.5" width="120" height="60" as="geometry"/>
                </mxCell>
                <mxCell id="23" style="edgeStyle=none;html=1;exitX=0;exitY=0.5;exitDx=0;exitDy=0;entryX=1;entryY=0.5;entryDx=0;entryDy=0;startArrow=classic;startFill=1;" edge="1" parent="25" source="4" target="3">
                    <mxGeometry relative="1" as="geometry"/>
                </mxCell>
                <mxCell id="21" style="edgeStyle=none;html=1;exitX=0.75;exitY=1;exitDx=0;exitDy=0;entryX=0.25;entryY=0;entryDx=0;entryDy=0;startArrow=classic;startFill=1;" edge="1" parent="25" source="3" target="5">
                    <mxGeometry relative="1" as="geometry"/>
                </mxCell>
                <mxCell id="22" style="edgeStyle=none;html=1;exitX=0.25;exitY=1;exitDx=0;exitDy=0;entryX=0.75;entryY=0;entryDx=0;entryDy=0;startArrow=classic;startFill=1;" edge="1" parent="25" source="4" target="5">
                    <mxGeometry relative="1" as="geometry"/>
                </mxCell>
            </root>
        </mxGraphModel>
    </diagram>
</mxfile>